# xmcd
#
# Track frame offsets:
#       150
#       25508
#       43183
#       66885
#       84966
#       104033
#       121510
#       143991
#       153001
#       166698
#       196917
#       211303
#
# Disc length: 3113 seconds
#
# Revision: 1
# Processed by: cddbd v1.5.1PL0 Copyright (c) Steve Scherf et al.
# Submitted via: MusiCat 1.1
#
DISCID=920c270c
DTITLE=The Original Soul Stirrers - Swing Low
DYEAR=1900
DGENRE=
TTITLE0=Thank You For Blessing Me
TTITLE1=I've Come Too Far
TTITLE2=He'll Understand
TTITLE3=Jesus The Healer
TTITLE4=Jesus Loves Me 
TTITLE5=I Know Him
TTITLE6=I Really Love You Lord
TTITLE7=Swing Low Sweet Chariot
TTITLE8=What Will The World Be Like Without Jesus
TTITLE9=You're Right There
TTITLE10=Leave You In The Hands Of The Lord
TTITLE11=Holding My Saviours Hand
EXTD=\n\n
EXTT0=
EXTT1=
EXTT2=
EXTT3=
EXTT4=
EXTT5=
EXTT6=
EXTT7=
EXTT8=
EXTT9=
EXTT10=
EXTT11=
PLAYORDER=
